<mxfile host="app.diagrams.net" modified="2024-08-03T08:28:28.156Z" agent="Mozilla/5.0 (Macintosh; Intel Mac OS X 10_15_7) AppleWebKit/537.36 (KHTML, like Gecko) Chrome/120.0.0.0 Whale/3.24.223.18 Safari/537.36" version="24.7.1" etag="BUcWWrhcY-kMAKk6uN9o" type="github">
  <diagram name="페이지-1" id="2WWq3FoiBIygSgmrf8-9">
    <mxGraphModel>
      <root>
        <mxCell id="0" />
        <mxCell id="1" parent="0" />
      </root>
    </mxGraphModel>
  </diagram>
</mxfile>
